<?xml version="1.0" encoding="iso-8859-1"?><!DOCTYPE svg PUBLIC "-//W3C//DTD SVG 1.1//EN" "http://www.w3.org/Graphics/SVG/1.1/DTD/svg11.dtd"><svg xmlns="http://www.w3.org/2000/svg" xmlns:xlink="http://www.w3.org/1999/xlink"><symbol viewBox="0 0 330 330" id="arrow" xmlns="http://www.w3.org/2000/svg"><path d="M325.607 79.393c-5.857-5.857-15.355-5.858-21.213.001l-139.39 139.393L25.607 79.393c-5.857-5.857-15.355-5.858-21.213.001-5.858 5.858-5.858 15.355 0 21.213l150.004 150a14.999 14.999 0 0021.212-.001l149.996-150c5.859-5.857 5.859-15.355.001-21.213z"/></symbol><symbol viewBox="0 0 24 24" id="arrow-diag" xmlns="http://www.w3.org/2000/svg"><path d="M21 11H6.414l5.293-5.293-1.414-1.414L2.586 12l7.707 7.707 1.414-1.414L6.414 13H21z"/></symbol><symbol viewBox="0 0 16 16" id="cross" xmlns="http://www.w3.org/2000/svg"><path d="M10.25 5.75l-4.5 4.5m0-4.5l4.5 4.5M2.75 2.75h10.5v10.5H2.75z"/></symbol><symbol viewBox="0 0 16 16" id="fb" xmlns="http://www.w3.org/2000/svg"><path d="M16 8.049c0-4.446-3.582-8.05-8-8.05C3.58 0-.002 3.603-.002 8.05c0 4.017 2.926 7.347 6.75 7.951v-5.625h-2.03V8.05H6.75V6.275c0-2.017 1.195-3.131 3.022-3.131.876 0 1.791.157 1.791.157v1.98h-1.009c-.993 0-1.303.621-1.303 1.258v1.51h2.218l-.354 2.326H9.25V16c3.824-.604 6.75-3.934 6.75-7.951z"/></symbol><symbol viewBox="0 0 256 256" id="inst" xmlns="http://www.w3.org/2000/svg"><path d="M160 128a32 32 0 11-32-32 32.037 32.037 0 0132 32zm68-44v88a56.064 56.064 0 01-56 56H84a56.064 56.064 0 01-56-56V84a56.064 56.064 0 0156-56h88a56.064 56.064 0 0156 56zm-52 44a48 48 0 10-48 48 48.054 48.054 0 0048-48zm16-52a12 12 0 10-12 12 12 12 0 0012-12z"/></symbol><symbol viewBox="0 0 97.75 97.75" id="ok" xmlns="http://www.w3.org/2000/svg"><path d="M48.921 40.507a8.367 8.367 0 008.367-8.443c-.017-4.679-3.742-8.402-8.411-8.406a8.398 8.398 0 00-8.432 8.508c.035 4.66 3.794 8.358 8.476 8.341z"/><path d="M48.875 0C21.882 0 0 21.883 0 48.875S21.882 97.75 48.875 97.75 97.75 75.867 97.75 48.875 75.868 0 48.875 0zm.07 14.863c9.52.026 17.161 7.813 17.112 17.438-.048 9.403-7.814 17.024-17.318 16.992-9.407-.032-17.122-7.831-17.066-17.253.053-9.525 7.772-17.203 17.272-17.177zm19.282 41.194c-2.105 2.161-4.639 3.725-7.453 4.816-2.66 1.031-5.575 1.55-8.461 1.896.437.474.642.707.914.979 3.916 3.937 7.851 7.854 11.754 11.802 1.33 1.346 1.607 3.014.875 4.577-.799 1.71-2.592 2.834-4.351 2.713-1.114-.077-1.983-.63-2.754-1.407-2.956-2.974-5.968-5.895-8.862-8.925-.845-.882-1.249-.714-1.994.052a589.856 589.856 0 01-9.034 9.072c-1.365 1.346-2.989 1.59-4.573.82-1.683-.814-2.753-2.533-2.671-4.262.058-1.166.632-2.06 1.434-2.858 3.877-3.869 7.742-7.75 11.608-11.628.257-.257.495-.53.868-.93-5.273-.551-10.028-1.849-14.099-5.032-.506-.396-1.027-.778-1.487-1.222-1.783-1.711-1.962-3.672-.553-5.69 1.207-1.728 3.231-2.19 5.336-1.197.408.191.796.433 1.168.689 7.586 5.213 18.008 5.356 25.624.233.754-.576 1.561-1.05 2.496-1.289 1.816-.468 3.512.201 4.486 1.791 1.115 1.817 1.102 3.589-.271 5z"/></symbol><symbol viewBox="-2.5 0 32 32" id="paperclip" xmlns="http://www.w3.org/2000/svg"><path d="M2.098 5.903A6.887 6.887 0 017 3.873c1.852 0 3.593.721 4.902 2.03l14.035 14.036a4.802 4.802 0 010 6.783c-.906.907-2.11 1.405-3.392 1.405s-2.486-.499-3.392-1.405l-6.197-6.196.005-.005-7.407-7.408a2.641 2.641 0 01-.78-1.881c0-.711.277-1.379.78-1.882.502-.502 1.17-.78 1.881-.78s1.379.278 1.881.78l11.871 11.87-.742.742-11.871-11.87c-.609-.608-1.67-.608-2.278 0-.304.304-.472.709-.472 1.14s.168.835.472 1.139L19.894 25.98c.708.709 1.648 1.098 2.65 1.098s1.942-.389 2.65-1.098a3.752 3.752 0 000-5.3L11.159 6.644c-1.112-1.111-2.589-1.723-4.16-1.723s-3.049.612-4.16 1.723c-1.111 1.111-1.724 2.589-1.724 4.16s.613 3.05 1.724 4.161L15.14 27.266l-.742.742L2.097 15.706C.787 14.396.066 12.655.066 10.803S.787 7.21 2.097 5.901z"/></symbol><symbol viewBox="0 0 472.615 472.615" id="play" xmlns="http://www.w3.org/2000/svg"><path d="M50.273 0v472.615l372.069-236.307z"/></symbol><symbol viewBox="0 0 487.95 487.95" id="search" xmlns="http://www.w3.org/2000/svg"><path d="M481.8 453l-140-140.1c27.6-33.1 44.2-75.4 44.2-121.6C386 85.9 299.5.2 193.1.2S0 86 0 191.4s86.5 191.1 192.9 191.1c45.2 0 86.8-15.5 119.8-41.4l140.5 140.5c8.2 8.2 20.4 8.2 28.6 0 8.2-8.2 8.2-20.4 0-28.6zM41 191.4c0-82.8 68.2-150.1 151.9-150.1s151.9 67.3 151.9 150.1-68.2 150.1-151.9 150.1S41 274.1 41 191.4z"/></symbol><symbol viewBox="0 0 24 24" id="vk" xmlns="http://www.w3.org/2000/svg"><path d="M23.456 5.784a8.605 8.605 0 01-1.09 2.259l.019-.03q-.672 1.12-1.605 2.588-.8 1.159-.847 1.2a1.28 1.28 0 00-.267.618l-.001.007a.897.897 0 00.268.535l.4.446q3.21 3.299 3.611 4.548a.89.89 0 01-.112.829l.002-.003a.965.965 0 01-.784.289h.004H20.418c-.337 0-.647-.118-.89-.314l.003.002a6.928 6.928 0 01-.951-.948l-.009-.012q-.691-.781-1.226-1.315-1.782-1.694-2.63-1.694a.788.788 0 00-.516.135l.003-.002a.767.767 0 00-.16.584v-.004a12.532 12.532 0 00-.038 1.403v-.017 1.159a.78.78 0 01-.266.757l-.001.001a3.179 3.179 0 01-1.617.267l.013.001a8.323 8.323 0 01-4.275-1.268l.035.02A11.931 11.931 0 014.176 14.3l-.027-.042a26.36 26.36 0 01-2.471-3.992l-.07-.154A24.657 24.657 0 01.375 7.31l-.06-.185a6.646 6.646 0 01-.31-1.535l-.002-.025q0-.758.892-.758h2.63a1.058 1.058 0 01.739.225l-.002-.002c.2.219.348.488.421.788l.003.012a25.422 25.422 0 001.587 3.615l-.067-.137a14.56 14.56 0 001.623 2.576l-.023-.031q.8.982 1.248.982l.032.001a.4.4 0 00.347-.2l.001-.002a1.783 1.783 0 00.111-.787v.006-3.879a3.211 3.211 0 00-.32-1.267l.008.019a2.956 2.956 0 00-.45-.695l.003.004a1.099 1.099 0 01-.311-.619l-.001-.006c0-.17.078-.323.2-.423l.001-.001a.678.678 0 01.46-.178h4.154a.634.634 0 01.559.222l.001.001a1.36 1.36 0 01.159.763v-.005 5.173a.993.993 0 00.136.584l-.002-.004a.401.401 0 00.333.178h.001a.946.946 0 00.471-.162l-.003.002c.272-.187.506-.4.709-.641l.004-.005a15.606 15.606 0 001.655-2.25l.039-.07c.344-.57.716-1.272 1.053-1.993l.062-.147.446-.892a1.122 1.122 0 011.117-.759h-.003 2.631q1.066 0 .8.981z"/></symbol><symbol viewBox="0 0 310 310" id="youtube" xmlns="http://www.w3.org/2000/svg"><path d="M297.917 64.645c-11.19-13.302-31.85-18.728-71.306-18.728H83.386c-40.359 0-61.369 5.776-72.517 19.938C0 79.663 0 100.008 0 128.166v53.669c0 54.551 12.896 82.248 83.386 82.248h143.226c34.216 0 53.176-4.788 65.442-16.527C304.633 235.518 310 215.863 310 181.835v-53.669c0-29.695-.841-50.16-12.083-63.521zm-98.896 97.765l-65.038 33.991a9.997 9.997 0 01-14.632-8.863v-67.764a10 10 0 0114.609-8.874l65.038 33.772a10 10 0 01.023 17.738z"/></symbol></svg>