<?xml version="1.0" encoding="utf-8"?><svg xmlns="http://www.w3.org/2000/svg" xmlns:xlink="http://www.w3.org/1999/xlink"><symbol viewBox="0 0 100 100" id="picture" xmlns="http://www.w3.org/2000/svg"><path fill="#c7ede6" d="M87.215 56.71A15.423 15.423 0 0089 49.5c0-6.621-4.159-12.257-10.001-14.478L79 35c0-11.598-9.402-21-21-21-9.784 0-17.981 6.701-20.313 15.757A14.982 14.982 0 0033 29c-7.692 0-14.023 5.793-14.89 13.252C12.906 43.353 9 47.969 9 53.5 9 59.851 14.149 65 20.5 65c.177 0 .352-.012.526-.022-.004.175-.026.346-.026.522C21 76.822 30.178 86 41.5 86c6.437 0 12.175-2.972 15.934-7.614A11.948 11.948 0 0066 82c4.65 0 8.674-2.65 10.666-6.518 1.052.335 2.171.518 3.334.518 6.075 0 11-4.925 11-11 0-3.311-1.47-6.273-3.785-8.29z"/><path fill="#fdfcef" d="M69.5 43.5v.5h-3v-.5H61a4.5 4.5 0 01-4.5-4.5c0-2.333 1.782-4.229 4.055-4.455-.022-.181-.055-.358-.055-.545a4.5 4.5 0 014.5-4.5c1.438 0 2.703.686 3.527 1.736.14-2.636 2.302-4.736 4.973-4.736a5 5 0 015 5c0 .446-.077.87-.187 1.282A3.475 3.475 0 0181 31.5a3.489 3.489 0 013.455 3.055c.181-.022.358-.055.545-.055a4.5 4.5 0 010 9H69.5z"/><path fill="#472b29" d="M73.5 26c3.033 0 5.5 2.467 5.5 5.5v.047A3.933 3.933 0 0181 31a3.998 3.998 0 013.858 3.005A2.22 2.22 0 0185 34c2.757 0 5 2.243 5 5s-2.243 5-5 5H69.5a.5.5 0 010-1H85c2.206 0 4-1.794 4-4s-1.794-4-4-4c-.117 0-.23.017-.343.032l-.141.019a.502.502 0 01-.557-.433A2.996 2.996 0 0081 32c-.885 0-1.723.401-2.301 1.1a.503.503 0 01-.614.126.5.5 0 01-.254-.573A4.45 4.45 0 0078 31.5c0-2.481-2.019-4.5-4.5-4.5-2.381 0-4.347 1.872-4.474 4.263a.5.5 0 01-.893.282A3.97 3.97 0 0065 30c-2.206 0-4 1.794-4 4 0 .117.017.23.032.343l.019.141a.5.5 0 01-.446.558A3.976 3.976 0 0057 39c0 2.206 1.794 4 4 4h5.5a.5.5 0 010 1H61c-2.757 0-5-2.243-5-5a4.966 4.966 0 014.003-4.877A5.006 5.006 0 0165 29c1.176 0 2.293.416 3.183 1.164A5.486 5.486 0 0173.5 26z"/><path fill="#472b29" d="M75 33c1.403 0 2.609.999 2.913 2.341A2.344 2.344 0 0179.125 35c1.202 0 2.198.897 2.353 2.068a2.63 2.63 0 01.585-.068 2.94 2.94 0 012.918 2.732.252.252 0 01-.232.268h-.018a.25.25 0 01-.249-.232 2.44 2.44 0 00-2.419-2.268c-.229 0-.47.042-.738.127a.222.222 0 01-.067.01.26.26 0 01-.258-.262 1.877 1.877 0 00-1.875-1.875c-.447 0-.885.168-1.231.473a.252.252 0 01-.165.063.231.231 0 01-.093-.019.247.247 0 01-.155-.212C77.377 34.512 76.288 33.5 75 33.5c-.208 0-.425.034-.682.107a.25.25 0 01-.137-.481A2.94 2.94 0 0175 33zm-13.883 1.5c1.326 0 2.508.897 2.874 2.182a.25.25 0 11-.481.136A2.505 2.505 0 0061.117 35c-.117 0-.23.014-.342.029a.251.251 0 01-.281-.214.249.249 0 01.214-.281c.134-.018.27-.034.409-.034z"/><path fill="#fff" d="M15.5 51h-10a.5.5 0 010-1h10a.5.5 0 010 1zm3 0h-1a.5.5 0 010-1h1a.5.5 0 010 1zm4.991 2H14.5a.5.5 0 010-1h8.991a.5.5 0 010 1zM12.5 53h-1a.5.5 0 010-1h1a.5.5 0 010 1zm-3 0h-2a.5.5 0 010-1h2a.5.5 0 010 1zm6 2h-2a.5.5 0 010-1h2a.5.5 0 010 1zm3-9h-1a.5.5 0 000 1h1a.5.5 0 000-1zm0 2h-5a.5.5 0 000 1h5a.5.5 0 000-1zm5 2h-3a.5.5 0 000 1h3a.5.5 0 000-1zm63 18h-10a.5.5 0 010-1h10a.5.5 0 010 1zm4 0h-2a.5.5 0 010-1h2a.5.5 0 010 1zm5 2h-10a.5.5 0 010-1h10a.5.5 0 010 1zm-12 0h-1a.5.5 0 010-1h1a.5.5 0 010 1zm-3.03 0H78.5a.5.5 0 010-1h1.97a.5.5 0 010 1zm9.03-4h-5a.5.5 0 010-1h5a.5.5 0 010 1zm-3 6h-2a.5.5 0 010-1h2a.5.5 0 010 1z"/><path fill="#fcba7f" d="M28.886 70.3c-.654 0-1.186-.545-1.186-1.215v-34.17c0-.67.531-1.215 1.186-1.215h42.229c.654 0 1.186.545 1.186 1.215v34.17c0 .67-.532 1.215-1.187 1.215H28.886z"/><path fill="#472b29" d="M71.114 34.4c.268 0 .486.231.486.515v34.17a.502.502 0 01-.487.515H28.886c-.268 0-.486-.231-.486-.515v-34.17c0-.284.218-.515.486-.515h42.228m0-1.4H28.886C27.844 33 27 33.857 27 34.915v34.17c0 1.058.844 1.915 1.886 1.915h42.227C72.156 71 73 70.143 73 69.085v-34.17C73 33.857 72.156 33 71.114 33z"/><path fill="#c7dff1" d="M31.217 37.46H68.86V66.9H31.217z"/><path fill="#472b29" d="M68.132 37.96h-2.377a.5.5 0 010-1h2.377a.5.5 0 010 1zM62.075 37.96h-5.463a.5.5 0 010-1h5.463a.5.5 0 010 1z"/><path fill="#472b29" d="M69 67H31V37h22.5a.5.5 0 010 1H32v28h36V40.5a.5.5 0 011 0V67z"/><path fill="#f9e65c" d="M42.18 40.68a3.22 3.22 0 100 6.44 3.22 3.22 0 100-6.44z"/><path fill="#472b29" d="M42.18 47.37a3.474 3.474 0 01-3.47-3.47 3.475 3.475 0 013.47-3.471 3.475 3.475 0 013.471 3.471 3.475 3.475 0 01-3.471 3.47zm0-6.44c-1.638 0-2.97 1.333-2.97 2.971s1.332 2.97 2.97 2.97 2.971-1.332 2.971-2.97-1.334-2.971-2.971-2.971z"/><path fill="#00a7a7" d="M39.203 66.558l14.1-20.876a.734.734 0 011.201-.01l13.859 19.691v1.195h-29.16z"/><path fill="#472b29" d="M68.863 67.059H38.262l14.627-21.656a1.233 1.233 0 011.01-.537c.424.035.786.191 1.015.52l13.95 19.82v1.853zm-28.718-1h27.719v-.537L54.095 45.96a.226.226 0 00-.188-.095h-.001a.23.23 0 00-.189.098L40.145 66.059z"/><path fill="#00a7a7" d="M31.712 58.173l6.319-6.961a.985.985 0 011.51.071l5.125 6.89-5.464 8.385h-7.566l.076-8.385z"/><path fill="#472b29" d="M39.473 67.059h-8.342l.084-9.081 6.446-7.102a1.45 1.45 0 011.171-.48 1.46 1.46 0 011.11.59l5.333 7.169-5.802 8.904zm-7.332-1h6.791l5.125-7.867-4.917-6.609a.472.472 0 00-.357-.188.44.44 0 00-.381.153l-6.19 6.82-.071 7.691z"/><g><path fill="#00a7a7" d="M58.56 51.144l4.756-5.594a.752.752 0 011.19.057l3.857 5.537-.039 14.069-9.764-14.069z"/><path fill="#472b29" d="M68.818 66.804L57.93 51.113l5.005-5.887a1.285 1.285 0 011.015-.439c.391.02.743.214.967.535l3.946 5.666-.045 15.816zm-9.629-15.628l8.639 12.446.034-12.321-3.767-5.406a.246.246 0 00-.194-.108.263.263 0 00-.205.089l-4.507 5.3z"/></g><g><path fill="#42210b" d="M50 26a2 2 0 100 4 2 2 0 100-4z"/></g><g><path fill="#472b29" d="M58.28 34.395a.492.492 0 01-.297-.098L50 28.421l-7.983 5.876a.499.499 0 11-.594-.804L50 27.179l8.577 6.313a.499.499 0 01-.297.903z"/></g><g><path fill="#fdfcef" d="M36.5 74.5H40a3.5 3.5 0 003.5-3.5 3.489 3.489 0 00-3.055-3.455c.028-.179.055-.358.055-.545a3.5 3.5 0 00-3.5-3.5c-1.032 0-1.95.455-2.59 1.165a3.999 3.999 0 00-7.91.835c0 .191.03.374.056.558A2.473 2.473 0 0025 65.5a2.496 2.496 0 00-2.455 2.055A3.495 3.495 0 0022 67.5a3.5 3.5 0 100 7h7.5v.5h7v-.5z"/><path fill="#472b29" d="M38.25 70a.25.25 0 01-.25-.25 2.22 2.22 0 012.218-2.218c.034.009.737-.001 1.244.136a.25.25 0 01-.13.482c-.444-.12-1.1-.12-1.113-.118A1.72 1.72 0 0038.5 69.75a.25.25 0 01-.25.25zm-6.75 4a.5.5 0 100 1 .5.5 0 100-1z"/><path fill="#472b29" d="M40 75h-3.5a.5.5 0 010-1H40c1.654 0 3-1.346 3-3a2.996 2.996 0 00-2.618-2.959.502.502 0 01-.43-.573c.023-.154.048-.308.048-.468 0-1.654-1.346-3-3-3-.85 0-1.638.355-2.219 1a.498.498 0 01-.86-.231A3.514 3.514 0 0030.5 62c-1.93 0-3.5 1.57-3.5 3.5 0 .143.021.28.041.418.029.203-.063.438-.242.54-.179.102-.396.118-.556-.01A1.97 1.97 0 0025 66c-.966 0-1.792.691-1.963 1.644a.498.498 0 01-.569.405C22.314 68.025 22.16 68 22 68c-1.654 0-3 1.346-3 3s1.346 3 3 3h7.5a.5.5 0 010 1H22c-2.206 0-4-1.794-4-4a4.004 4.004 0 014.174-3.994A2.993 2.993 0 0125 65c.349 0 .689.061 1.011.18A4.506 4.506 0 0130.5 61a4.523 4.523 0 014.153 2.774A3.979 3.979 0 0137 63a4.004 4.004 0 013.996 4.142A3.999 3.999 0 0144 71c0 2.206-1.794 4-4 4z"/><path fill="#472b29" d="M34.5 74h-1a.5.5 0 000 1h1a.5.5 0 000-1z"/></g></symbol><symbol viewBox="0 0 100 100" id="share" xmlns="http://www.w3.org/2000/svg"><path fill="#c7ede6" d="M87.3 56.7c1.1-2.2 1.8-4.6 1.8-7.2 0-6.6-4.2-12.3-10-14.5 0-11.6-9.4-21-21-21-9.8 0-18 6.7-20.3 15.8-1.5-.5-3-.8-4.7-.8-7.7 0-14 5.8-14.9 13.3C13 43.4 9.1 48 9.1 53.5c0 6.4 5.1 11.5 11.5 11.5h.5v.5c0 11.3 9.2 20.5 20.5 20.5 6.4 0 12.2-3 15.9-7.6 2.2 2.2 5.2 3.6 8.6 3.6 4.7 0 8.7-2.7 10.7-6.5 1.1.3 2.2.5 3.3.5 6.1 0 11-4.9 11-11 0-3.3-1.4-6.3-3.8-8.3z"/><path fill="#78cdd4" d="M41.5 48.9h3v9.2h-3z"/><path fill="#472b29" d="M41.6 58c-.3 0-.5-.2-.5-.5v-8c0-.3.2-.5.5-.5s.5.2.5.5v8c0 .3-.2.5-.5.5zm3 0c-.3 0-.5-.2-.5-.5v-8c0-.3.2-.5.5-.5s.5.2.5.5v8c0 .3-.2.5-.5.5z"/><path fill="#78cdd4" d="M50.7 46.92l1.383-2.661 8.163 4.244-1.384 2.662z"/><path fill="#472b29" d="M58.4 51.3c-.1 0-.2 0-.2-.1L51 47.5c-.2-.1-.3-.4-.2-.7.1-.2.4-.3.7-.2l7.1 3.7c.2.1.3.4.2.7-.1.2-.3.3-.4.3zm1.4-2.7c-.1 0-.2 0-.2-.1l-7.1-3.7c-.2-.1-.3-.4-.2-.7.1-.2.4-.3.7-.2l7.1 3.7c.2.1.3.4.2.7-.2.2-.4.3-.5.3z"/><path fill="#78cdd4" d="M51.017 60.363l8.163-4.244 1.384 2.662-8.163 4.244z"/><path fill="#472b29" d="M52.8 63.2c-.2 0-.4-.1-.4-.3-.1-.2 0-.5.2-.7l7.1-3.7c.2-.1.5 0 .7.2.1.2 0 .5-.2.7L53 63.2h-.2zm-1.4-2.6c-.2 0-.4-.1-.4-.3-.1-.2 0-.5.2-.7l7.1-3.7c.2-.1.5 0 .7.2.1.2 0 .5-.2.7l-7.1 3.7c-.1.1-.2.1-.3.1z"/><path fill="#fdfcef" d="M78.9 36.5H85c2.5 0 4.5-2 4.5-4.5 0-2.3-1.8-4.2-4.1-4.5 0-.2.1-.4.1-.5 0-2.5-2-4.5-4.5-4.5-1.4 0-2.7.7-3.5 1.7-.1-2.6-2.3-4.7-5-4.7-2.8 0-5 2.2-5 5 0 .4.1.9.2 1.3-.7-.8-1.6-1.3-2.7-1.3-1.8 0-3.2 1.3-3.5 3.1-.2 0-.4-.1-.5-.1-2.5 0-4.5 2-4.5 4.5s2 4.5 4.5 4.5h14.9v.5h3v-.5z"/><path fill="#472b29" d="M72.5 19c-3 0-5.5 2.5-5.5 5.5-.6-.4-1.3-.5-2-.5-1.8 0-3.4 1.3-3.9 3H61c-2.8 0-5 2.2-5 5s2.2 5 5 5h14.9c.3 0 .5-.2.5-.5s-.2-.5-.5-.5H61c-2.2 0-4-1.8-4-4s1.8-4 4-4h.5c.2 0 .5-.2.5-.4.2-1.5 1.5-2.6 3-2.6.9 0 1.7.4 2.3 1.1.1.1.2.2.4.2.1 0 .2 0 .2-.1.2-.1.3-.3.3-.6-.1-.4-.2-.8-.2-1.2 0-2.5 2-4.5 4.5-4.5 2.4 0 4.3 1.9 4.5 4.3 0 .2.2.4.3.5h.2c.2 0 .3-.1.4-.2.8-1 1.9-1.5 3.1-1.5 2.2 0 4 1.8 4 4v.4c0 .1 0 .3.1.4s.2.2.3.2c2.1.2 3.6 1.9 3.6 4 0 2.2-1.8 4-4 4h-6.1c-.3 0-.5.2-.5.5s.2.5.5.5H85c2.8 0 5-2.2 5-5 0-2.4-1.7-4.4-4-4.9V27c0-2.8-2.2-5-5-5-1.2 0-2.3.4-3.2 1.2-.6-2.4-2.7-4.2-5.3-4.2z"/><path fill="#472b29" d="M71 26c-1.4 0-2.6 1-2.9 2.3-.4-.2-.8-.3-1.2-.3-1.2 0-2.2.9-2.4 2.1-.2 0-.4-.1-.6-.1-1.5 0-2.8 1.2-2.9 2.7 0 .1.1.3.2.3s.2-.1.2-.2c.1-1.3 1.2-2.3 2.4-2.3.2 0 .5 0 .7.1h.1c.1 0 .1 0 .2-.1.1 0 .1-.1.1-.2 0-1 .8-1.9 1.9-1.9.4 0 .9.2 1.2.5 0 0 .1.1.2.1h.1c.1 0 .1-.1.2-.2.1-1.3 1.2-2.3 2.5-2.3.2 0 .4 0 .7.1h.1c.1 0 .2-.1.2-.2s0-.3-.2-.3c-.3-.1-.5-.1-.8-.1zm13.9 1.5c-1.3 0-2.5.9-2.9 2.2 0 .1 0 .3.2.3h.1c.1 0 .2-.1.2-.2.3-1.1 1.3-1.8 2.4-1.8h.3c.1 0 .2-.1.2-.2s-.1-.3-.2-.3h-.3z"/><path fill="#fff" d="M49.7 21h-9.9c-.3 0-.5-.2-.5-.5s.2-.5.5-.5h9.9c.3 0 .5.2.5.5s-.2.5-.5.5zm3.1 0h-1c-.3 0-.5-.2-.5-.5s.2-.5.5-.5h1c.3 0 .5.2.5.5s-.2.5-.5.5zm5 2h-9c-.3 0-.5-.2-.5-.5s.2-.5.5-.5h9c.3 0 .5.2.5.5s-.2.5-.5.5zm-11 0h-1c-.3 0-.5-.2-.5-.5s.2-.5.5-.5h1c.3 0 .5.2.5.5s-.2.5-.5.5zm-3 0h-2c-.3 0-.5-.2-.5-.5s.2-.5.5-.5h2c.3 0 .5.2.5.5s-.2.5-.5.5zm6 2h-2c-.3 0-.5-.2-.5-.5s.2-.5.5-.5h2c.3 0 .5.2.5.5s-.2.5-.5.5zm3-9h-1c-.3 0-.5.2-.5.5s.2.5.5.5h1c.3 0 .5-.2.5-.5s-.2-.5-.5-.5zm0 2h-5c-.3 0-.5.2-.5.5s.2.5.5.5h5c.3 0 .5-.2.5-.5s-.2-.5-.5-.5zm5 2h-3c-.3 0-.5.2-.5.5s.2.5.5.5h3c.3 0 .5-.2.5-.5s-.2-.5-.5-.5zM82.5 68h-10c-.3 0-.5-.2-.5-.5s.2-.5.5-.5h10c.3 0 .5.2.5.5s-.2.5-.5.5zm4 0h-2c-.3 0-.5-.2-.5-.5s.2-.5.5-.5h2c.3 0 .5.2.5.5s-.2.5-.5.5zm5 2h-10c-.3 0-.5-.2-.5-.5s.2-.5.5-.5h10c.3 0 .5.2.5.5s-.2.5-.5.5zm-12 0h-1c-.3 0-.5-.2-.5-.5s.2-.5.5-.5h1c.3 0 .5.2.5.5s-.2.5-.5.5zm-3.1 0h-1.9c-.3 0-.5-.2-.5-.5s.2-.5.5-.5h1.9c.3 0 .5.2.5.5s-.2.5-.5.5zm9.1-4h-5c-.3 0-.5-.2-.5-.5s.2-.5.5-.5h5c.3 0 .5.2.5.5s-.2.5-.5.5zm-3 6h-2c-.3 0-.5-.2-.5-.5s.2-.5.5-.5h2c.3 0 .5.2.5.5s-.2.5-.5.5z"/><path fill="#fdfcef" d="M24.5 60.5H28c1.9 0 3.5-1.6 3.5-3.5 0-1.8-1.3-3.2-3.1-3.5 0-.2.1-.4.1-.5 0-1.9-1.6-3.5-3.5-3.5-1 0-2 .5-2.6 1.2-.4-1.8-2-3.2-3.9-3.2-2.2 0-4 1.8-4 4 0 .2 0 .4.1.6-.4-.3-1-.6-1.6-.6-1.2 0-2.2.9-2.5 2.1-.2 0-.4-.1-.5-.1-1.9 0-3.5 1.6-3.5 3.5s1.6 3.5 3.5 3.5h7.5v.5h7v-.5z"/><path fill="#472b29" d="M26.3 56c-.1 0-.3-.1-.3-.3 0-1.2 1-2.2 2.2-2.2 0 0 .7 0 1.2.1.1 0 .2.2.2.3 0 .1-.2.2-.3.2-.4-.1-1.1-.1-1.1-.1-.9 0-1.7.8-1.7 1.7 0 .2-.1.3-.2.3zm-6.8 4a.5.5 0 100 1 .5.5 0 100-1z"/><path fill="#472b29" d="M28 61h-3.5c-.3 0-.5-.2-.5-.5s.2-.5.5-.5H28c1.7 0 3-1.3 3-3 0-1.5-1.1-2.8-2.6-3-.1 0-.3-.1-.3-.2s-.1-.2-.1-.4v-.5c0-1.7-1.3-3-3-3-.9 0-1.6.4-2.2 1-.1.1-.3.2-.5.1-.2 0-.3-.2-.4-.4-.3-1.6-1.8-2.8-3.4-2.8-1.9 0-3.5 1.6-3.5 3.5v.4c0 .2-.1.4-.2.5s-.4.1-.6 0c-.3 0-.8-.2-1.2-.2-1 0-1.8.7-2 1.6 0 .3-.3.4-.6.4h-.5c-1.7 0-3 1.3-3 3s1.3 3 3 3h7.5c.3 0 .5.2.5.5s-.1.5-.4.5H10c-2.2 0-4-1.8-4-4s1.8-4 4-4h.2c.4-1.2 1.5-2 2.8-2 .3 0 .7.1 1 .2.2-2.3 2.1-4.2 4.5-4.2 1.8 0 3.5 1.1 4.2 2.8.7-.5 1.5-.8 2.3-.8 2.2 0 4 1.8 4 4v.1c1.7.4 3 2 3 3.9 0 2.2-1.8 4-4 4z"/><path fill="#472b29" d="M22.5 60h-1c-.3 0-.5.2-.5.5s.2.5.5.5h1c.3 0 .5-.2.5-.5s-.2-.5-.5-.5z"/><path fill="#78cdd4" d="M68 43.7a9.3 9.3 0 100 18.6 9.3 9.3 0 100-18.6z"/><path fill="#472b29" d="M68 44.4c4.7 0 8.6 3.9 8.6 8.6s-3.9 8.6-8.6 8.6-8.6-3.9-8.6-8.6 3.9-8.6 8.6-8.6m0-1.4c-5.5 0-10 4.5-10 10s4.5 10 10 10 10-4.5 10-10-4.5-10-10-10z"/><path fill="#472b29" d="M68.2 59.2c-3.4 0-6.1-2.7-6.1-6.1 0-3.4 2.7-6.1 6.1-6.1.3 0 .5.2.5.5s-.2.5-.5.5c-2.8 0-5.1 2.3-5.1 5.1s2.3 5.1 5.1 5.1 5.1-2.3 5.1-5.1c0-.3.2-.5.5-.5s.5.2.5.5c0 3.3-2.8 6.1-6.1 6.1zm5-8.2c-.2 0-.4-.1-.4-.3-.5-.9-1.2-1.7-2.1-2.2-.2-.1-.3-.4-.2-.7.1-.2.4-.3.7-.2 1.1.6 2 1.5 2.5 2.6.1.2 0 .5-.2.7-.2.1-.2.1-.3.1z"/><g><path fill="#78cdd4" d="M43 31.7a9.3 9.3 0 100 18.6 9.3 9.3 0 100-18.6z"/><path fill="#472b29" d="M43 32.4c4.7 0 8.6 3.9 8.6 8.6s-3.9 8.6-8.6 8.6-8.6-3.9-8.6-8.6 3.9-8.6 8.6-8.6m0-1.4c-5.5 0-10 4.5-10 10s4.5 10 10 10 10-4.5 10-10-4.5-10-10-10z"/></g><g><path fill="#472b29" d="M42.8 47c-3.4 0-6.1-2.7-6.1-6.1s2.7-6.1 6.1-6.1c.3 0 .5.2.5.5s-.2.5-.5.5c-2.8 0-5.1 2.3-5.1 5.1S40 46 42.8 46s5.1-2.3 5.1-5.1c0-.3.2-.5.5-.5s.5.2.5.5c.1 3.3-2.7 6.1-6.1 6.1zm5.1-8.2c-.2 0-.4-.1-.4-.3-.5-.9-1.2-1.7-2.1-2.2-.2-.1-.3-.4-.2-.7.1-.2.4-.3.7-.2 1.1.6 2 1.5 2.5 2.6.1.2 0 .5-.2.7-.2.1-.2.1-.3.1z"/></g><g><path fill="#78cdd4" d="M43 56.7a9.3 9.3 0 100 18.6 9.3 9.3 0 100-18.6z"/><path fill="#472b29" d="M43 57.4c4.7 0 8.6 3.9 8.6 8.6s-3.9 8.6-8.6 8.6-8.6-3.9-8.6-8.6 3.9-8.6 8.6-8.6m0-1.4c-5.5 0-10 4.5-10 10s4.5 10 10 10 10-4.5 10-10-4.5-10-10-10z"/></g><g><path fill="#472b29" d="M42.8 72.3c-3.4 0-6.1-2.7-6.1-6.1s2.7-6.1 6.1-6.1c.3 0 .5.2.5.5s-.2.4-.5.4c-2.8 0-5.1 2.3-5.1 5.1s2.3 5.1 5.1 5.1 5.2-2.2 5.2-5c0-.3.2-.5.5-.5s.5.2.5.5c0 3.3-2.8 6.1-6.2 6.1zm5.1-8.1c-.2 0-.4-.1-.4-.3-.5-.9-1.2-1.7-2.1-2.2-.2-.1-.3-.4-.2-.7.1-.2.4-.3.7-.2 1.1.6 2 1.5 2.5 2.6.1.2 0 .5-.2.7-.2 0-.2.1-.3.1z"/></g></symbol></svg>